<?xml version="1.0" encoding="UTF-8" standalone="no"?>
<!DOCTYPE svg PUBLIC "-//W3C//DTD SVG 1.1//EN"
 "http://www.w3.org/Graphics/SVG/1.1/DTD/svg11.dtd">
<!-- Generated by graphviz version 14.1.1 (20251213.1925)
 -->
<!-- Pages: 1 -->
<svg width="1470pt" height="755pt"
 viewBox="0.00 0.00 1470.00 755.00" xmlns="http://www.w3.org/2000/svg" xmlns:xlink="http://www.w3.org/1999/xlink">
<g id="graph0" class="graph" transform="scale(1 1) rotate(0) translate(4 750.62)">
<polygon fill="white" stroke="none" points="-4,4 -4,-750.62 1466,-750.62 1466,4 -4,4"/>
<g id="clust1" class="cluster">
<title>cluster10</title>
<polygon fill="none" stroke="black" points="369,-8 369,-545.88 1083,-545.88 1083,-8 369,-8"/>
<text xml:space="preserve" text-anchor="start" x="382" y="-528.38" font-family="Tahoma" font-weight="bold" font-size="10.00">House subsystem</text>
</g>
<g id="clust2" class="cluster">
<title>cluster19</title>
<polygon fill="#f7f7f7" stroke="black" points="489,-350.62 489,-507.12 950,-507.12 950,-350.62 489,-350.62"/>
<image xlink:href="./assets/ico_pi.jpg" width="49px" height="50px" preserveAspectRatio="xMinYMin meet" x="502" y="-497"/>
<text xml:space="preserve" text-anchor="start" x="568.12" y="-489.62" font-family="Tahoma" font-weight="bold" font-size="10.00">Linux Server</text>
<text xml:space="preserve" text-anchor="start" x="558" y="-468.88" font-family="Tahoma" font-size="10.00">[Hardware System]</text>
<text xml:space="preserve" text-anchor="start" x="567.38" y="-449.12" font-family="Tahoma" font-size="10.00">Raspberry Pi3B</text>
</g>
<g id="clust3" class="cluster">
<title>cluster18</title>
<polygon fill="#f7f7f7" stroke="black" points="8,-8 8,-738.62 348,-738.62 348,-8 8,-8"/>
<text xml:space="preserve" text-anchor="start" x="21" y="-721.12" font-family="Tahoma" font-weight="bold" font-size="10.00">Car gate subsystem</text>
</g>
<g id="clust4" class="cluster">
<title>cluster17</title>
<polygon fill="#f7f7f7" stroke="black" points="1104,-159.25 1104,-496 1454,-496 1454,-159.25 1104,-159.25"/>
<text xml:space="preserve" text-anchor="start" x="1117" y="-478.5" font-family="Tahoma" font-weight="bold" font-size="10.00">Yard entrance subsystem</text>
</g>
<!-- asterisk -->
<g id="node1" class="node">
<title>asterisk</title>
<polygon fill="white" stroke="none" points="504.88,-362.62 504.88,-424.88 595.12,-424.88 595.12,-362.62 504.88,-362.62"/>
<text xml:space="preserve" text-anchor="start" x="529.38" y="-411.38" font-family="Tahoma" font-weight="bold" font-size="10.00">Asterisk</text>
<text xml:space="preserve" text-anchor="start" x="509.88" y="-390.62" font-family="Tahoma" font-size="10.00">[Software System]</text>
<text xml:space="preserve" text-anchor="start" x="526" y="-370.88" font-family="Tahoma" font-size="10.00">SIP service</text>
</g>
<!-- tel88_1 -->
<g id="node4" class="node">
<title>tel88_1</title>
<image xlink:href="./assets/ico_8865.jpg" width="53px" height="37px" preserveAspectRatio="xMinYMin meet" x="405.5" y="-272.5"/>
<text xml:space="preserve" text-anchor="start" x="393.38" y="-220" font-family="Tahoma" font-weight="bold" font-size="10.00">PoE, SIP Phone</text>
<text xml:space="preserve" text-anchor="start" x="389.62" y="-199.25" font-family="Tahoma" font-size="10.00">[Hardware System]</text>
<text xml:space="preserve" text-anchor="start" x="408.75" y="-179.5" font-family="Tahoma" font-size="10.00">Cisco 8865</text>
</g>
<!-- asterisk&#45;&gt;tel88_1 -->
<g id="edge6" class="edge">
<title>asterisk&#45;&gt;tel88_1</title>
<path fill="none" stroke="orange" d="M550.99,-347.27C549.41,-331.07 545.3,-313.4 536,-299.5 527.35,-286.58 518.88,-290.21 506,-281.5 499.86,-277.34 493.53,-272.87 487.29,-268.33"/>
<polygon fill="orange" stroke="orange" points="547.49,-347.48 551.63,-357.23 554.48,-347.03 547.49,-347.48"/>
</g>
<!-- tel88_2 -->
<g id="node5" class="node">
<title>tel88_2</title>
<image xlink:href="./assets/ico_8865.jpg" width="53px" height="37px" preserveAspectRatio="xMinYMin meet" x="552.5" y="-272.5"/>
<text xml:space="preserve" text-anchor="start" x="540.38" y="-220" font-family="Tahoma" font-weight="bold" font-size="10.00">PoE, SIP Phone</text>
<text xml:space="preserve" text-anchor="start" x="536.62" y="-199.25" font-family="Tahoma" font-size="10.00">[Hardware System]</text>
<text xml:space="preserve" text-anchor="start" x="555.75" y="-179.5" font-family="Tahoma" font-size="10.00">Cisco 8865</text>
</g>
<!-- asterisk&#45;&gt;tel88_2 -->
<g id="edge7" class="edge">
<title>asterisk&#45;&gt;tel88_2</title>
<path fill="none" stroke="orange" d="M557.81,-347.66C561.35,-327.23 565.57,-302.86 569.32,-281.27"/>
<polygon fill="orange" stroke="orange" points="554.39,-346.94 556.13,-357.39 561.28,-348.13 554.39,-346.94"/>
</g>
<!-- telVG -->
<g id="node6" class="node">
<title>telVG</title>
<image xlink:href="./assets/ico_VG.jpg" width="84.75px" height="37px" preserveAspectRatio="xMinYMin meet" x="683.625" y="-272.5"/>
<text xml:space="preserve" text-anchor="start" x="699" y="-220" font-family="Tahoma" font-weight="bold" font-size="10.00">Voice Gate</text>
<text xml:space="preserve" text-anchor="start" x="683.62" y="-199.25" font-family="Tahoma" font-size="10.00">[Hardware System]</text>
<text xml:space="preserve" text-anchor="start" x="692.25" y="-179.5" font-family="Tahoma" font-size="10.00">Cisco VG204XM</text>
</g>
<!-- asterisk&#45;&gt;telVG -->
<g id="edge8" class="edge">
<title>asterisk&#45;&gt;telVG</title>
<path fill="none" stroke="orange" d="M593.91,-350.99C617.15,-328.89 645.93,-301.53 670.68,-277.99"/>
<polygon fill="orange" stroke="orange" points="591.55,-348.41 586.71,-357.84 596.37,-353.48 591.55,-348.41"/>
</g>
<!-- db_1 -->
<g id="node11" class="node">
<title>db_1</title>
<polygon fill="white" stroke="none" points="172,-334.25 172,-453.25 332,-453.25 332,-334.25 172,-334.25"/>
<image xlink:href="./assets/ico_vto.jpg" width="37px" height="37px" preserveAspectRatio="xMinYMin meet" x="233.5" y="-448.25"/>
<text xml:space="preserve" text-anchor="start" x="208.5" y="-395.75" font-family="Tahoma" font-weight="bold" font-size="10.00">PoE, SIP Doorbell</text>
<text xml:space="preserve" text-anchor="start" x="209.62" y="-375" font-family="Tahoma" font-size="10.00">[Hardware System]</text>
<text xml:space="preserve" text-anchor="start" x="210" y="-355.25" font-family="Tahoma" font-size="10.00">Dahua VTO2202F&#45;P</text>
<text xml:space="preserve" text-anchor="start" x="177" y="-342.5" font-family="Tahoma" font-size="10.00">outside of the property; on a stand</text>
</g>
<!-- asterisk&#45;&gt;db_1 -->
<g id="edge9" class="edge">
<title>asterisk&#45;&gt;db_1</title>
<path fill="none" stroke="orange" d="M485.7,-393.75C437.1,-393.75 388.49,-393.75 339.89,-393.75"/>
<polygon fill="orange" stroke="orange" points="485.55,-397.25 495.55,-393.75 485.55,-390.25 485.55,-397.25"/>
</g>
<!-- db_2 -->
<g id="node17" class="node">
<title>db_2</title>
<polygon fill="white" stroke="none" points="1120.25,-334.25 1120.25,-453.25 1359.75,-453.25 1359.75,-334.25 1120.25,-334.25"/>
<image xlink:href="./assets/ico_vto.jpg" width="37px" height="37px" preserveAspectRatio="xMinYMin meet" x="1221.5" y="-448.25"/>
<text xml:space="preserve" text-anchor="start" x="1196.5" y="-395.75" font-family="Tahoma" font-weight="bold" font-size="10.00">PoE, SIP Doorbell</text>
<text xml:space="preserve" text-anchor="start" x="1197.62" y="-375" font-family="Tahoma" font-size="10.00">[Hardware System]</text>
<text xml:space="preserve" text-anchor="start" x="1198" y="-355.25" font-family="Tahoma" font-size="10.00">Dahua VTO2202F&#45;P</text>
<text xml:space="preserve" text-anchor="start" x="1125.25" y="-342.5" font-family="Tahoma" font-size="10.00">outside of the property; inside of the fence gate pillar</text>
</g>
<!-- asterisk&#45;&gt;db_2 -->
<g id="edge10" class="edge">
<title>asterisk&#45;&gt;db_2</title>
<path fill="none" stroke="orange" d="M557.66,-439.76C567.8,-482.81 590.55,-542.89 640,-559.38 671.73,-569.95 908.62,-567.74 941,-559.38 1017.99,-539.48 1096.3,-495.03 1153.46,-457.19"/>
<polygon fill="orange" stroke="orange" points="561.11,-439.17 555.56,-430.15 554.27,-440.67 561.11,-439.17"/>
</g>
<!-- dnsmasq -->
<g id="node2" class="node">
<title>dnsmasq</title>
<polygon fill="white" stroke="none" points="647.62,-362.62 647.62,-424.88 772.38,-424.88 772.38,-362.62 647.62,-362.62"/>
<text xml:space="preserve" text-anchor="start" x="686.75" y="-411.38" font-family="Tahoma" font-weight="bold" font-size="10.00">Dnsmasq</text>
<text xml:space="preserve" text-anchor="start" x="669.88" y="-390.62" font-family="Tahoma" font-size="10.00">[Software System]</text>
<text xml:space="preserve" text-anchor="start" x="652.62" y="-370.88" font-family="Tahoma" font-size="10.00">DHCP, DNS, TFTP services</text>
</g>
<!-- dnsmasq&#45;&gt;tel88_1 -->
<g id="edge3" class="edge">
<title>dnsmasq&#45;&gt;tel88_1</title>
<path fill="none" stroke="grey" d="M656.14,-352.25C644.81,-344.5 632.73,-336.78 621,-330.25 590.6,-313.33 581.05,-313.05 549,-299.5 529.92,-291.43 523.95,-291.84 506,-281.5 499.71,-277.88 493.35,-273.79 487.13,-269.53"/>
<polygon fill="grey" stroke="grey" points="654,-355.03 664.21,-357.88 658.01,-349.29 654,-355.03"/>
</g>
<!-- dnsmasq&#45;&gt;tel88_2 -->
<g id="edge4" class="edge">
<title>dnsmasq&#45;&gt;tel88_2</title>
<path fill="none" stroke="grey" d="M676.48,-349.93C660.14,-329.04 640.27,-303.66 622.75,-281.27"/>
<polygon fill="grey" stroke="grey" points="673.64,-351.97 682.56,-357.69 679.15,-347.66 673.64,-351.97"/>
</g>
<!-- dnsmasq&#45;&gt;telVG -->
<g id="edge5" class="edge">
<title>dnsmasq&#45;&gt;telVG</title>
<path fill="none" stroke="grey" d="M714.31,-347.66C716.26,-327.23 718.59,-302.86 720.66,-281.27"/>
<polygon fill="grey" stroke="grey" points="710.85,-347.08 713.38,-357.37 717.82,-347.75 710.85,-347.08"/>
</g>
<!-- ha -->
<g id="node3" class="node">
<title>ha</title>
<polygon fill="white" stroke="none" points="824.12,-362.62 824.12,-424.88 933.88,-424.88 933.88,-362.62 824.12,-362.62"/>
<text xml:space="preserve" text-anchor="start" x="839.25" y="-411.38" font-family="Tahoma" font-weight="bold" font-size="10.00">Home Assistant</text>
<text xml:space="preserve" text-anchor="start" x="838.88" y="-390.62" font-family="Tahoma" font-size="10.00">[Software System]</text>
<text xml:space="preserve" text-anchor="start" x="829.12" y="-370.88" font-family="Tahoma" font-size="10.00">&quot;Smart Home&quot; services</text>
</g>
<!-- comp_1 -->
<g id="node9" class="node">
<title>comp_1</title>
<text xml:space="preserve" text-anchor="start" x="838.88" y="-232.12" font-family="Tahoma" font-weight="bold" font-size="10.00">Mobile Phone</text>
<text xml:space="preserve" text-anchor="start" x="830.62" y="-211.38" font-family="Tahoma" font-size="10.00">[Hardware System]</text>
</g>
<!-- ha&#45;&gt;comp_1 -->
<g id="edge13" class="edge">
<title>ha&#45;&gt;comp_1</title>
<path fill="none" stroke="blue" d="M877.39,-347.7C876.25,-316.09 874.78,-275.04 873.86,-249.46"/>
<polygon fill="blue" stroke="blue" points="873.88,-347.5 877.73,-357.37 880.87,-347.25 873.88,-347.5"/>
</g>
<!-- comp_2 -->
<g id="node10" class="node">
<title>comp_2</title>
<text xml:space="preserve" text-anchor="start" x="1002.75" y="-232.12" font-family="Tahoma" font-weight="bold" font-size="10.00">Laptop</text>
<text xml:space="preserve" text-anchor="start" x="977.62" y="-211.38" font-family="Tahoma" font-size="10.00">[Hardware System]</text>
</g>
<!-- ha&#45;&gt;comp_2 -->
<g id="edge14" class="edge">
<title>ha&#45;&gt;comp_2</title>
<path fill="none" stroke="blue" d="M890.71,-348.33C896.64,-331.73 905.16,-313.53 917,-299.5 926.79,-287.91 933.5,-290.09 946,-281.5 960.62,-271.45 976.34,-259.68 989.51,-249.51"/>
<polygon fill="blue" stroke="blue" points="887.49,-346.92 887.65,-357.51 894.13,-349.13 887.49,-346.92"/>
</g>
<!-- ha&#45;&gt;db_1 -->
<g id="edge11" class="edge">
<title>ha&#45;&gt;db_1</title>
<path fill="none" stroke="blue" d="M871.96,-428.54C861.01,-471.45 835.14,-541 780,-559.38 750.27,-569.28 527.97,-568.52 498,-559.38 436.25,-540.53 375.98,-500.41 330.54,-464.38"/>
<polygon fill="blue" stroke="blue" points="332.83,-461.72 322.84,-458.18 328.44,-467.17 332.83,-461.72"/>
</g>
<!-- ha&#45;&gt;db_2 -->
<g id="edge12" class="edge">
<title>ha&#45;&gt;db_2</title>
<path fill="none" stroke="blue" d="M941.75,-393.75C994.87,-393.75 1047.98,-393.75 1101.1,-393.75"/>
<polygon fill="blue" stroke="blue" points="1100.92,-397.25 1110.92,-393.75 1100.92,-390.25 1100.92,-397.25"/>
</g>
<!-- telAn_1 -->
<g id="node7" class="node">
<title>telAn_1</title>
<image xlink:href="./assets/ico_pulse.jpg" width="67px" height="37px" preserveAspectRatio="xMinYMin meet" x="650.5" y="-121.25"/>
<text xml:space="preserve" text-anchor="start" x="642.38" y="-68.75" font-family="Tahoma" font-weight="bold" font-size="10.00">Pulse dial phone</text>
<text xml:space="preserve" text-anchor="start" x="641.62" y="-48" font-family="Tahoma" font-size="10.00">[Hardware System]</text>
<text xml:space="preserve" text-anchor="start" x="641.62" y="-28.25" font-family="Tahoma" font-size="10.00">Analogue telephone</text>
</g>
<!-- telVG&#45;&gt;telAn_1 -->
<g id="edge1" class="edge">
<title>telVG&#45;&gt;telAn_1</title>
<path fill="none" stroke="purple" d="M707.13,-156.32C704.65,-147.5 702.13,-138.54 699.71,-129.94"/>
<polygon fill="purple" stroke="purple" points="703.75,-157.24 709.83,-165.92 710.49,-155.34 703.75,-157.24"/>
</g>
<!-- telAn_2 -->
<g id="node8" class="node">
<title>telAn_2</title>
<image xlink:href="./assets/ico_tone.jpg" width="69px" height="37px" preserveAspectRatio="xMinYMin meet" x="809.5" y="-121.25"/>
<text xml:space="preserve" text-anchor="start" x="788.88" y="-68.75" font-family="Tahoma" font-weight="bold" font-size="10.00">DTMF tone dial phone</text>
<text xml:space="preserve" text-anchor="start" x="801.62" y="-48" font-family="Tahoma" font-size="10.00">[Hardware System]</text>
<text xml:space="preserve" text-anchor="start" x="801.62" y="-28.25" font-family="Tahoma" font-size="10.00">Analogue telephone</text>
</g>
<!-- telVG&#45;&gt;telAn_2 -->
<g id="edge2" class="edge">
<title>telVG&#45;&gt;telAn_2</title>
<path fill="none" stroke="purple" d="M777.39,-158.38C784.88,-148.9 792.54,-139.21 799.87,-129.94"/>
<polygon fill="purple" stroke="purple" points="774.67,-156.17 771.21,-166.19 780.16,-160.51 774.67,-156.17"/>
</g>
<!-- db_1&#45;&gt;comp_1 -->
<g id="edge15" class="edge">
<title>db_1&#45;&gt;comp_1</title>
<path fill="none" stroke="green" d="M312.59,-330.49C328.18,-318.02 345.81,-306.6 364.25,-299.5 454.49,-264.78 708.01,-314.21 799,-281.5 813.99,-276.11 828.44,-266.52 840.52,-256.77"/>
<polygon fill="green" stroke="green" points="842.75,-259.47 848.12,-250.34 838.23,-254.13 842.75,-259.47"/>
<text xml:space="preserve" text-anchor="middle" x="394.62" y="-302.75" font-family="Tahoma" font-size="10.00" fill="green">rtsp:// stream</text>
</g>
<!-- db_1&#45;&gt;comp_2 -->
<g id="edge16" class="edge">
<title>db_1&#45;&gt;comp_2</title>
<path fill="none" stroke="green" d="M339.73,-365.09C381.79,-352.77 433.11,-339.07 480,-330.25 531.16,-320.63 897.59,-300.64 946,-281.5 960.58,-275.74 974.76,-266.26 986.73,-256.71"/>
<polygon fill="green" stroke="green" points="988.83,-259.52 994.27,-250.43 984.35,-254.14 988.83,-259.52"/>
<text xml:space="preserve" text-anchor="middle" x="852.96" y="-302.75" font-family="Tahoma" font-size="10.00" fill="green">rtsp:// stream</text>
</g>
<!-- gate_1 -->
<g id="node12" class="node">
<title>gate_1</title>
<polygon fill="white" stroke="none" points="24.25,-171.25 24.25,-277.5 161.75,-277.5 161.75,-171.25 24.25,-171.25"/>
<image xlink:href="./assets/ico_sgo.jpg" width="44px" height="37px" preserveAspectRatio="xMinYMin meet" x="71" y="-272.5"/>
<text xml:space="preserve" text-anchor="start" x="48.75" y="-220" font-family="Tahoma" font-weight="bold" font-size="10.00">Property car gate</text>
<text xml:space="preserve" text-anchor="start" x="50.62" y="-199.25" font-family="Tahoma" font-size="10.00">[Hardware System]</text>
<text xml:space="preserve" text-anchor="start" x="29.25" y="-179.5" font-family="Tahoma" font-size="10.00">Automatic sliding gate opener</text>
</g>
<!-- db_1&#45;&gt;gate_1 -->
<g id="edge20" class="edge">
<title>db_1&#45;&gt;gate_1</title>
<path fill="none" stroke="black" d="M192.79,-330.43C180.14,-317.11 166.76,-303.02 154.04,-289.63"/>
<polygon fill="black" stroke="black" points="156.69,-287.34 147.27,-282.5 151.62,-292.16 156.69,-287.34"/>
</g>
<!-- gate_1s2 -->
<g id="node15" class="node">
<title>gate_1s2</title>
<polygon fill="white" stroke="none" points="213.62,-171.25 213.62,-277.5 332.38,-277.5 332.38,-171.25 213.62,-171.25"/>
<image xlink:href="./assets/ico_wcs.jpg" width="103px" height="37px" preserveAspectRatio="xMinYMin meet" x="221.5" y="-272.5"/>
<text xml:space="preserve" text-anchor="start" x="218.62" y="-220" font-family="Tahoma" font-weight="bold" font-size="10.00">Gate feedback sensor</text>
<text xml:space="preserve" text-anchor="start" x="230.62" y="-199.25" font-family="Tahoma" font-size="10.00">[Hardware System]</text>
<text xml:space="preserve" text-anchor="start" x="220.12" y="-179.5" font-family="Tahoma" font-size="10.00">Closure feedback sensor</text>
</g>
<!-- db_1&#45;&gt;gate_1s2 -->
<g id="edge23" class="edge">
<title>db_1&#45;&gt;gate_1s2</title>
<path fill="none" stroke="black" d="M261.21,-319.35C262.81,-306.63 264.44,-293.57 265.97,-281.4"/>
<polygon fill="black" stroke="black" points="257.78,-318.57 260.01,-328.92 264.73,-319.44 257.78,-318.57"/>
</g>
<!-- gate_1i -->
<g id="node13" class="node">
<title>gate_1i</title>
<polygon fill="white" stroke="none" points="24.12,-20 24.12,-126.25 145.88,-126.25 145.88,-20 24.12,-20"/>
<image xlink:href="./assets/ico_sgi.jpg" width="57px" height="37px" preserveAspectRatio="xMinYMin meet" x="56.5" y="-121.25"/>
<text xml:space="preserve" text-anchor="start" x="29.12" y="-68.75" font-family="Tahoma" font-weight="bold" font-size="10.00">Gate closure indicator</text>
<text xml:space="preserve" text-anchor="start" x="42.62" y="-48" font-family="Tahoma" font-size="10.00">[Hardware System]</text>
<text xml:space="preserve" text-anchor="start" x="49" y="-28.25" font-family="Tahoma" font-size="10.00">Closure indicator</text>
</g>
<!-- gate_1&#45;&gt;gate_1i -->
<g id="edge22" class="edge">
<title>gate_1&#45;&gt;gate_1i</title>
<path fill="none" stroke="black" d="M90,-167.38C89.54,-158.86 89.07,-150.01 88.6,-141.29"/>
<polygon fill="black" stroke="black" points="92.1,-141.25 88.07,-131.45 85.11,-141.63 92.1,-141.25"/>
</g>
<!-- gate_1s1 -->
<g id="node14" class="node">
<title>gate_1s1</title>
<polygon fill="white" stroke="none" points="197.62,-20 197.62,-126.25 292.38,-126.25 292.38,-20 197.62,-20"/>
<image xlink:href="./assets/ico_sgs.jpg" width="65px" height="37px" preserveAspectRatio="xMinYMin meet" x="212.5" y="-121.25"/>
<text xml:space="preserve" text-anchor="start" x="203" y="-68.75" font-family="Tahoma" font-weight="bold" font-size="10.00">Photocell sensor</text>
<text xml:space="preserve" text-anchor="start" x="202.62" y="-48" font-family="Tahoma" font-size="10.00">[Hardware System]</text>
<text xml:space="preserve" text-anchor="start" x="204.88" y="-28.25" font-family="Tahoma" font-size="10.00">Obstruction sensor</text>
</g>
<!-- gate_1&#45;&gt;gate_1s1 -->
<g id="edge21" class="edge">
<title>gate_1&#45;&gt;gate_1s1</title>
<path fill="none" stroke="black" d="M158.02,-159.53C168.56,-149.18 179.39,-138.55 189.67,-128.46"/>
<polygon fill="black" stroke="black" points="155.79,-156.81 151.11,-166.31 160.7,-161.81 155.79,-156.81"/>
</g>
<!-- loop -->
<g id="node16" class="node">
<title>loop</title>
<polygon fill="white" stroke="none" points="132.12,-576.88 132.12,-695.88 331.88,-695.88 331.88,-576.88 132.12,-576.88"/>
<image xlink:href="./assets/ico_vdl.jpg" width="111px" height="37px" preserveAspectRatio="xMinYMin meet" x="176.5" y="-690.875"/>
<text xml:space="preserve" text-anchor="start" x="157.75" y="-638.38" font-family="Tahoma" font-weight="bold" font-size="10.00">Vehicle detection loop sensor</text>
<text xml:space="preserve" text-anchor="start" x="189.62" y="-617.62" font-family="Tahoma" font-size="10.00">[Hardware System]</text>
<text xml:space="preserve" text-anchor="start" x="137.12" y="-597.88" font-family="Tahoma" font-size="10.00">Internal automatic gate opening loop sensor</text>
<text xml:space="preserve" text-anchor="start" x="164.88" y="-585.12" font-family="Tahoma" font-size="10.00">internally on the gate approach</text>
</g>
<!-- loop&#45;&gt;db_1 -->
<g id="edge19" class="edge">
<title>loop&#45;&gt;db_1</title>
<path fill="none" stroke="black" d="M237.18,-573.1C239.84,-541.07 243.1,-501.83 245.89,-468.31"/>
<polygon fill="black" stroke="black" points="249.34,-468.95 246.69,-458.69 242.37,-468.37 249.34,-468.95"/>
</g>
<!-- db_2&#45;&gt;comp_1 -->
<g id="edge17" class="edge">
<title>db_2&#45;&gt;comp_1</title>
<path fill="none" stroke="green" d="M1112.44,-353.26C1059.7,-334.67 998.88,-310.24 947,-281.5 934.2,-274.41 921.18,-265.29 909.7,-256.48"/>
<polygon fill="green" stroke="green" points="912.07,-253.89 902.04,-250.46 907.74,-259.39 912.07,-253.89"/>
<text xml:space="preserve" text-anchor="middle" x="1038.75" y="-302.75" font-family="Tahoma" font-size="10.00" fill="green">rtsp:// stream</text>
</g>
<!-- db_2&#45;&gt;comp_2 -->
<g id="edge18" class="edge">
<title>db_2&#45;&gt;comp_2</title>
<path fill="none" stroke="green" d="M1156.07,-330.26C1148.01,-324.2 1139.96,-318.12 1132.25,-312.25 1108.05,-293.85 1081.1,-273 1059.68,-256.35"/>
<polygon fill="green" stroke="green" points="1062.1,-253.79 1052.05,-250.41 1057.8,-259.32 1062.1,-253.79"/>
<text xml:space="preserve" text-anchor="middle" x="1162.62" y="-302.75" font-family="Tahoma" font-size="10.00" fill="green">rtsp:// stream</text>
</g>
<!-- gate_2 -->
<g id="node18" class="node">
<title>gate_2</title>
<polygon fill="white" stroke="none" points="1119.88,-171.25 1119.88,-277.5 1216.12,-277.5 1216.12,-171.25 1119.88,-171.25"/>
<image xlink:href="./assets/ico_ell.jpg" width="63px" height="37px" preserveAspectRatio="xMinYMin meet" x="1136.5" y="-272.5"/>
<text xml:space="preserve" text-anchor="start" x="1138" y="-220" font-family="Tahoma" font-weight="bold" font-size="10.00">Yard wicket</text>
<text xml:space="preserve" text-anchor="start" x="1125.62" y="-199.25" font-family="Tahoma" font-size="10.00">[Hardware System]</text>
<text xml:space="preserve" text-anchor="start" x="1124.88" y="-179.5" font-family="Tahoma" font-size="10.00">Electric door opener</text>
</g>
<!-- db_2&#45;&gt;gate_2 -->
<g id="edge24" class="edge">
<title>db_2&#45;&gt;gate_2</title>
<path fill="none" stroke="black" d="M1213.19,-330.43C1207.79,-317.86 1202.09,-304.61 1196.62,-291.91"/>
<polygon fill="black" stroke="black" points="1199.87,-290.6 1192.7,-282.79 1193.44,-293.36 1199.87,-290.6"/>
</g>
<!-- gate_2s -->
<g id="node19" class="node">
<title>gate_2s</title>
<polygon fill="white" stroke="none" points="1268.12,-171.25 1268.12,-277.5 1437.88,-277.5 1437.88,-171.25 1268.12,-171.25"/>
<image xlink:href="./assets/ico_wcs.jpg" width="103px" height="37px" preserveAspectRatio="xMinYMin meet" x="1301.5" y="-272.5"/>
<text xml:space="preserve" text-anchor="start" x="1273.12" y="-220" font-family="Tahoma" font-weight="bold" font-size="10.00">Wicket closure feedback sensor</text>
<text xml:space="preserve" text-anchor="start" x="1310.62" y="-199.25" font-family="Tahoma" font-size="10.00">[Hardware System]</text>
<text xml:space="preserve" text-anchor="start" x="1300.12" y="-179.5" font-family="Tahoma" font-size="10.00">Closure feedback sensor</text>
</g>
<!-- db_2&#45;&gt;gate_2s -->
<g id="edge25" class="edge">
<title>db_2&#45;&gt;gate_2s</title>
<path fill="none" stroke="black" d="M1288.51,-320.89C1297.43,-307.68 1306.62,-294.07 1315.17,-281.4"/>
<polygon fill="black" stroke="black" points="1285.62,-318.92 1282.92,-329.17 1291.42,-322.84 1285.62,-318.92"/>
</g>
</g>
</svg>
