<?xml version="1.0" encoding="UTF-8" standalone="no"?>
<!DOCTYPE svg PUBLIC "-//W3C//DTD SVG 1.1//EN"
 "http://www.w3.org/Graphics/SVG/1.1/DTD/svg11.dtd">
<!-- Generated by graphviz version 14.1.1 (20251213.1925)
 -->
<!-- Pages: 1 -->
<svg width="1693pt" height="864pt"
 viewBox="0.00 0.00 1693.00 864.00" xmlns="http://www.w3.org/2000/svg" xmlns:xlink="http://www.w3.org/1999/xlink">
<g id="graph0" class="graph" transform="scale(1 1) rotate(0) translate(4 859.62)">
<polygon fill="white" stroke="none" points="-4,4 -4,-859.62 1689,-859.62 1689,4 -4,4"/>
<g id="clust1" class="cluster">
<title>cluster0</title>
<polygon fill="none" stroke="black" points="8,-8 8,-847.62 1677,-847.62 1677,-8 8,-8"/>
<text xml:space="preserve" text-anchor="start" x="1598.75" y="-830.12" font-family="Tahoma" font-weight="bold" font-size="10.00">The property</text>
</g>
<g id="clust2" class="cluster">
<title>cluster10</title>
<polygon fill="none" stroke="black" points="376,-165.25 376,-808.88 1188,-808.88 1188,-165.25 376,-165.25"/>
<text xml:space="preserve" text-anchor="start" x="1080.5" y="-791.38" font-family="Tahoma" font-weight="bold" font-size="10.00">House subsystems</text>
</g>
<g id="clust3" class="cluster">
<title>cluster11</title>
<polygon fill="none" stroke="black" points="384,-173.25 384,-770.12 804,-770.12 804,-173.25 384,-173.25"/>
<text xml:space="preserve" text-anchor="start" x="614.75" y="-752.62" font-family="Tahoma" font-weight="bold" font-size="10.00">House communications subsystem</text>
</g>
<g id="clust4" class="cluster">
<title>cluster19</title>
<polygon fill="#f7f7f7" stroke="black" points="444,-574.88 444,-731.38 743,-731.38 743,-574.88 444,-574.88"/>
<image xlink:href="./assets/ico_pi.jpg" width="49px" height="50px" preserveAspectRatio="xMinYMin meet" x="589.25" y="-721.25"/>
<text xml:space="preserve" text-anchor="start" x="655.38" y="-713.88" font-family="Tahoma" font-weight="bold" font-size="10.00">Linux Server</text>
<text xml:space="preserve" text-anchor="start" x="645.25" y="-693.12" font-family="Tahoma" font-size="10.00">[Hardware System]</text>
<text xml:space="preserve" text-anchor="start" x="654.62" y="-673.38" font-family="Tahoma" font-size="10.00">Raspberry Pi3B</text>
</g>
<g id="clust5" class="cluster">
<title>cluster15</title>
<polygon fill="none" stroke="black" points="816,-363 816,-682 1180,-682 1180,-363 816,-363"/>
<text xml:space="preserve" text-anchor="start" x="934.5" y="-664.5" font-family="Tahoma" font-weight="bold" font-size="10.00">House automation &amp; management subsystem</text>
</g>
<g id="clust6" class="cluster">
<title>cluster1</title>
<polygon fill="#f7f7f7" stroke="black" points="824,-371 824,-527.5 1172,-527.5 1172,-371 824,-371"/>
<image xlink:href="./assets/ico_pi.jpg" width="49px" height="50px" preserveAspectRatio="xMinYMin meet" x="1018.25" y="-517.375"/>
<text xml:space="preserve" text-anchor="start" x="1084.38" y="-510" font-family="Tahoma" font-weight="bold" font-size="10.00">Linux Server</text>
<text xml:space="preserve" text-anchor="start" x="1074.25" y="-489.25" font-family="Tahoma" font-size="10.00">[Hardware System]</text>
<text xml:space="preserve" text-anchor="start" x="1083.62" y="-469.5" font-family="Tahoma" font-size="10.00">Raspberry Pi3B</text>
</g>
<g id="clust7" class="cluster">
<title>cluster18</title>
<polygon fill="#f7f7f7" stroke="black" points="16,-16 16,-720.25 363,-720.25 363,-16 16,-16"/>
<text xml:space="preserve" text-anchor="start" x="249.5" y="-702.75" font-family="Tahoma" font-weight="bold" font-size="10.00">Car gate subsystem</text>
</g>
<g id="clust8" class="cluster">
<title>cluster17</title>
<polygon fill="#f7f7f7" stroke="black" points="1319,-173.25 1319,-522.75 1669,-522.75 1669,-173.25 1319,-173.25"/>
<text xml:space="preserve" text-anchor="start" x="1526.25" y="-505.25" font-family="Tahoma" font-weight="bold" font-size="10.00">Yard entrance subsystem</text>
</g>
<!-- asterisk -->
<g id="node1" class="node">
<title>asterisk</title>
<polygon fill="white" stroke="none" points="459.88,-586.88 459.88,-649.12 550.12,-649.12 550.12,-586.88 459.88,-586.88"/>
<text xml:space="preserve" text-anchor="start" x="484.38" y="-635.62" font-family="Tahoma" font-weight="bold" font-size="10.00">Asterisk</text>
<text xml:space="preserve" text-anchor="start" x="464.88" y="-614.88" font-family="Tahoma" font-size="10.00">[Software System]</text>
<text xml:space="preserve" text-anchor="start" x="481" y="-595.12" font-family="Tahoma" font-size="10.00">SIP service</text>
</g>
<!-- tel88_1 -->
<g id="node3" class="node">
<title>tel88_1</title>
<image xlink:href="./assets/ico_8865.jpg" width="53px" height="37px" preserveAspectRatio="xMinYMin meet" x="420.5" y="-462.25"/>
<text xml:space="preserve" text-anchor="start" x="408.38" y="-409.75" font-family="Tahoma" font-weight="bold" font-size="10.00">PoE, SIP Phone</text>
<text xml:space="preserve" text-anchor="start" x="404.62" y="-389" font-family="Tahoma" font-size="10.00">[Hardware System]</text>
<text xml:space="preserve" text-anchor="start" x="423.75" y="-369.25" font-family="Tahoma" font-size="10.00">Cisco 8865</text>
</g>
<!-- asterisk&#45;&gt;tel88_1 -->
<g id="edge6" class="edge">
<title>asterisk&#45;&gt;tel88_1</title>
<path fill="none" stroke="orange" d="M492.16,-572.29C483.59,-542.49 472.27,-503.07 463.1,-471.17"/>
<polygon fill="orange" stroke="orange" points="488.75,-573.11 494.87,-581.76 495.48,-571.18 488.75,-573.11"/>
</g>
<!-- tel88_2 -->
<g id="node4" class="node">
<title>tel88_2</title>
<image xlink:href="./assets/ico_8865.jpg" width="53px" height="37px" preserveAspectRatio="xMinYMin meet" x="567.5" y="-462.25"/>
<text xml:space="preserve" text-anchor="start" x="555.38" y="-409.75" font-family="Tahoma" font-weight="bold" font-size="10.00">PoE, SIP Phone</text>
<text xml:space="preserve" text-anchor="start" x="551.62" y="-389" font-family="Tahoma" font-size="10.00">[Hardware System]</text>
<text xml:space="preserve" text-anchor="start" x="570.75" y="-369.25" font-family="Tahoma" font-size="10.00">Cisco 8865</text>
</g>
<!-- asterisk&#45;&gt;tel88_2 -->
<g id="edge7" class="edge">
<title>asterisk&#45;&gt;tel88_2</title>
<path fill="none" stroke="orange" d="M524.54,-572.69C537.7,-542.83 555.16,-503.22 569.29,-471.17"/>
<polygon fill="orange" stroke="orange" points="521.34,-571.26 520.51,-581.83 527.74,-574.09 521.34,-571.26"/>
</g>
<!-- telVG -->
<g id="node5" class="node">
<title>telVG</title>
<image xlink:href="./assets/ico_VG.jpg" width="84.75px" height="37px" preserveAspectRatio="xMinYMin meet" x="698.625" y="-462.25"/>
<text xml:space="preserve" text-anchor="start" x="714" y="-409.75" font-family="Tahoma" font-weight="bold" font-size="10.00">Voice Gate</text>
<text xml:space="preserve" text-anchor="start" x="698.62" y="-389" font-family="Tahoma" font-size="10.00">[Hardware System]</text>
<text xml:space="preserve" text-anchor="start" x="707.25" y="-369.25" font-family="Tahoma" font-size="10.00">Cisco VG204XM</text>
</g>
<!-- asterisk&#45;&gt;telVG -->
<g id="edge8" class="edge">
<title>asterisk&#45;&gt;telVG</title>
<path fill="none" stroke="orange" d="M546.94,-575.45C556.3,-567.7 566.56,-560.25 577,-554.5 613.59,-534.36 633.5,-552.44 667,-527.5 686.67,-512.85 702.66,-491.32 714.67,-471.01"/>
<polygon fill="orange" stroke="orange" points="544.7,-572.76 539.41,-581.94 549.27,-578.06 544.7,-572.76"/>
</g>
<!-- db_1 -->
<g id="node14" class="node">
<title>db_1</title>
<polygon fill="white" stroke="none" points="196.88,-348.25 196.88,-480 347.12,-480 347.12,-348.25 196.88,-348.25"/>
<image xlink:href="./assets/ico_vto.jpg" width="37px" height="37px" preserveAspectRatio="xMinYMin meet" x="253.5" y="-475"/>
<text xml:space="preserve" text-anchor="start" x="228.5" y="-422.5" font-family="Tahoma" font-weight="bold" font-size="10.00">PoE, SIP Doorbell</text>
<text xml:space="preserve" text-anchor="start" x="229.62" y="-401.75" font-family="Tahoma" font-size="10.00">[Hardware System]</text>
<text xml:space="preserve" text-anchor="start" x="230" y="-382" font-family="Tahoma" font-size="10.00">Dahua VTO2202F&#45;P</text>
<text xml:space="preserve" text-anchor="start" x="201.88" y="-369.25" font-family="Tahoma" font-size="10.00">at the gate approach, on a stand</text>
<text xml:space="preserve" text-anchor="start" x="217.25" y="-356.5" font-family="Tahoma" font-size="10.00">external side of the fence</text>
</g>
<!-- asterisk&#45;&gt;db_1 -->
<g id="edge9" class="edge">
<title>asterisk&#45;&gt;db_1</title>
<path fill="none" stroke="orange" d="M442.4,-583.63C420.07,-570.37 395.42,-554.08 375,-536.5 356.88,-520.9 339.25,-501.99 323.84,-483.78"/>
<polygon fill="orange" stroke="orange" points="440.43,-586.53 450.84,-588.55 443.96,-580.49 440.43,-586.53"/>
</g>
<!-- db_2 -->
<g id="node21" class="node">
<title>db_2</title>
<polygon fill="white" stroke="none" points="1355.25,-348.25 1355.25,-480 1474.75,-480 1474.75,-348.25 1355.25,-348.25"/>
<image xlink:href="./assets/ico_vto.jpg" width="37px" height="37px" preserveAspectRatio="xMinYMin meet" x="1396.5" y="-475"/>
<text xml:space="preserve" text-anchor="start" x="1371.5" y="-422.5" font-family="Tahoma" font-weight="bold" font-size="10.00">PoE, SIP Doorbell</text>
<text xml:space="preserve" text-anchor="start" x="1372.62" y="-401.75" font-family="Tahoma" font-size="10.00">[Hardware System]</text>
<text xml:space="preserve" text-anchor="start" x="1373" y="-382" font-family="Tahoma" font-size="10.00">Dahua VTO2202F&#45;P</text>
<text xml:space="preserve" text-anchor="start" x="1374.12" y="-369.25" font-family="Tahoma" font-size="10.00">on the wicket pillar</text>
<text xml:space="preserve" text-anchor="start" x="1360.25" y="-356.5" font-family="Tahoma" font-size="10.00">external side of the fence</text>
</g>
<!-- asterisk&#45;&gt;db_2 -->
<g id="edge10" class="edge">
<title>asterisk&#45;&gt;db_2</title>
<path fill="none" stroke="orange" d="M543.25,-575.52C553.35,-567.05 564.85,-559.28 577,-554.5 656.24,-523.3 1269.01,-569.68 1343,-527.5 1360.71,-517.4 1374.76,-500.97 1385.56,-483.75"/>
<polygon fill="orange" stroke="orange" points="541.04,-572.81 535.89,-582.07 545.69,-578.03 541.04,-572.81"/>
</g>
<!-- dnsmasq -->
<g id="node2" class="node">
<title>dnsmasq</title>
<polygon fill="white" stroke="none" points="602.62,-586.88 602.62,-649.12 727.38,-649.12 727.38,-586.88 602.62,-586.88"/>
<text xml:space="preserve" text-anchor="start" x="641.75" y="-635.62" font-family="Tahoma" font-weight="bold" font-size="10.00">Dnsmasq</text>
<text xml:space="preserve" text-anchor="start" x="624.88" y="-614.88" font-family="Tahoma" font-size="10.00">[Software System]</text>
<text xml:space="preserve" text-anchor="start" x="607.62" y="-595.12" font-family="Tahoma" font-size="10.00">DHCP, DNS, TFTP services</text>
</g>
<!-- dnsmasq&#45;&gt;tel88_1 -->
<g id="edge3" class="edge">
<title>dnsmasq&#45;&gt;tel88_1</title>
<path fill="none" stroke="grey" d="M610.49,-576.72C599.29,-569.02 587.43,-561.26 576,-554.5 552.56,-540.63 541.43,-545.5 521,-527.5 503.12,-511.75 487.75,-490.71 475.71,-471.09"/>
<polygon fill="grey" stroke="grey" points="608.27,-579.44 618.47,-582.29 612.27,-573.7 608.27,-579.44"/>
</g>
<!-- dnsmasq&#45;&gt;tel88_2 -->
<g id="edge4" class="edge">
<title>dnsmasq&#45;&gt;tel88_2</title>
<path fill="none" stroke="grey" d="M655.28,-571.84C652.35,-559.92 648.86,-547.13 645,-535.5 637.88,-514.07 628.59,-491.11 619.89,-471.05"/>
<polygon fill="grey" stroke="grey" points="651.86,-572.56 657.58,-581.48 658.67,-570.94 651.86,-572.56"/>
</g>
<!-- dnsmasq&#45;&gt;telVG -->
<g id="edge5" class="edge">
<title>dnsmasq&#45;&gt;telVG</title>
<path fill="none" stroke="grey" d="M681.68,-572.69C692.92,-542.83 707.84,-503.22 719.9,-471.17"/>
<polygon fill="grey" stroke="grey" points="678.5,-571.2 678.25,-581.79 685.05,-573.67 678.5,-571.2"/>
</g>
<!-- telAn_1 -->
<g id="node6" class="node">
<title>telAn_1</title>
<image xlink:href="./assets/ico_pulse.jpg" width="67px" height="37px" preserveAspectRatio="xMinYMin meet" x="707.5" y="-286.5"/>
<text xml:space="preserve" text-anchor="start" x="699.38" y="-234" font-family="Tahoma" font-weight="bold" font-size="10.00">Pulse dial phone</text>
<text xml:space="preserve" text-anchor="start" x="698.62" y="-213.25" font-family="Tahoma" font-size="10.00">[Hardware System]</text>
<text xml:space="preserve" text-anchor="start" x="698.62" y="-193.5" font-family="Tahoma" font-size="10.00">Analogue telephone</text>
</g>
<!-- telVG&#45;&gt;telAn_1 -->
<g id="edge1" class="edge">
<title>telVG&#45;&gt;telAn_1</title>
<path fill="none" stroke="purple" d="M741,-345.86C741,-329.21 741,-311.55 741,-295.5"/>
<polygon fill="purple" stroke="purple" points="737.5,-345.68 741,-355.68 744.5,-345.68 737.5,-345.68"/>
</g>
<!-- telAn_2 -->
<g id="node7" class="node">
<title>telAn_2</title>
<image xlink:href="./assets/ico_tone.jpg" width="69px" height="37px" preserveAspectRatio="xMinYMin meet" x="546.5" y="-286.5"/>
<text xml:space="preserve" text-anchor="start" x="525.88" y="-234" font-family="Tahoma" font-weight="bold" font-size="10.00">DTMF tone dial phone</text>
<text xml:space="preserve" text-anchor="start" x="538.62" y="-213.25" font-family="Tahoma" font-size="10.00">[Hardware System]</text>
<text xml:space="preserve" text-anchor="start" x="538.62" y="-193.5" font-family="Tahoma" font-size="10.00">Analogue telephone</text>
</g>
<!-- telVG&#45;&gt;telAn_2 -->
<g id="edge2" class="edge">
<title>telVG&#45;&gt;telAn_2</title>
<path fill="none" stroke="purple" d="M681.7,-348.73C665.61,-331.26 648.32,-312.48 632.68,-295.5"/>
<polygon fill="purple" stroke="purple" points="679.12,-351.09 688.47,-356.08 684.27,-346.35 679.12,-351.09"/>
</g>
<!-- other -->
<g id="node8" class="node">
<title>other</title>
<text xml:space="preserve" text-anchor="start" x="847.38" y="-625.75" font-family="Tahoma" font-weight="bold" font-size="10.00">Other installations</text>
<text xml:space="preserve" text-anchor="start" x="852.62" y="-605" font-family="Tahoma" font-size="10.00">[Hardware System]</text>
</g>
<!-- ha -->
<g id="node9" class="node">
<title>ha</title>
<polygon fill="white" stroke="none" points="840.12,-383 840.12,-445.25 949.88,-445.25 949.88,-383 840.12,-383"/>
<text xml:space="preserve" text-anchor="start" x="855.25" y="-431.75" font-family="Tahoma" font-weight="bold" font-size="10.00">Home Assistant</text>
<text xml:space="preserve" text-anchor="start" x="854.88" y="-411" font-family="Tahoma" font-size="10.00">[Software System]</text>
<text xml:space="preserve" text-anchor="start" x="845.12" y="-391.25" font-family="Tahoma" font-size="10.00">&quot;Smart Home&quot; services</text>
</g>
<!-- other&#45;&gt;ha -->
<g id="edge15" class="edge">
<title>other&#45;&gt;ha</title>
<path fill="none" stroke="deeppink" d="M895,-581.73C895,-544.42 895,-485.96 895,-449.13"/>
<polygon fill="deeppink" stroke="deeppink" points="891.5,-581.54 895,-591.54 898.5,-581.54 891.5,-581.54"/>
</g>
<!-- comp_1 -->
<g id="node11" class="node">
<title>comp_1</title>
<text xml:space="preserve" text-anchor="start" x="1070.88" y="-246.12" font-family="Tahoma" font-weight="bold" font-size="10.00">Mobile Phone</text>
<text xml:space="preserve" text-anchor="start" x="1062.62" y="-225.38" font-family="Tahoma" font-size="10.00">[Hardware System]</text>
</g>
<!-- ha&#45;&gt;comp_1 -->
<g id="edge13" class="edge">
<title>ha&#45;&gt;comp_1</title>
<path fill="none" stroke="blue" d="M916.3,-369.47C927.12,-350.53 941.67,-329.15 959,-313.5 963.06,-309.83 1015.07,-283.75 1055.87,-263.55"/>
<polygon fill="blue" stroke="blue" points="913.32,-367.62 911.56,-378.07 919.45,-371 913.32,-367.62"/>
</g>
<!-- comp_2 -->
<g id="node12" class="node">
<title>comp_2</title>
<text xml:space="preserve" text-anchor="start" x="899.75" y="-246.12" font-family="Tahoma" font-weight="bold" font-size="10.00">Laptop</text>
<text xml:space="preserve" text-anchor="start" x="874.62" y="-225.38" font-family="Tahoma" font-size="10.00">[Hardware System]</text>
</g>
<!-- ha&#45;&gt;comp_2 -->
<g id="edge14" class="edge">
<title>ha&#45;&gt;comp_2</title>
<path fill="none" stroke="blue" d="M900.73,-367.89C904.96,-334.49 910.55,-290.32 913.95,-263.43"/>
<polygon fill="blue" stroke="blue" points="897.27,-367.35 899.48,-377.71 904.21,-368.23 897.27,-367.35"/>
</g>
<!-- ha&#45;&gt;db_1 -->
<g id="edge11" class="edge">
<title>ha&#45;&gt;db_1</title>
<path fill="none" stroke="deeppink" d="M880.88,-449.2C865.46,-481.66 837.17,-526.94 795,-541 752.63,-555.12 435.37,-555.12 393,-541 366.35,-532.12 343.19,-513.15 324.47,-492.53"/>
<polygon fill="deeppink" stroke="deeppink" points="327.18,-490.31 317.98,-485.07 321.9,-494.91 327.18,-490.31"/>
</g>
<!-- ha&#45;&gt;db_2 -->
<g id="edge12" class="edge">
<title>ha&#45;&gt;db_2</title>
<path fill="none" stroke="deeppink" d="M908.86,-449.22C924.05,-481.7 951.99,-527 994,-541 1028.89,-552.63 1290.11,-552.63 1325,-541 1348.77,-533.08 1367.14,-514.23 1380.89,-493.42"/>
<polygon fill="deeppink" stroke="deeppink" points="1383.79,-495.38 1386.09,-485.03 1377.84,-491.69 1383.79,-495.38"/>
</g>
<!-- gr -->
<g id="node10" class="node">
<title>gr</title>
<polygon fill="white" stroke="none" points="1001.62,-383 1001.62,-445.25 1156.38,-445.25 1156.38,-383 1001.62,-383"/>
<text xml:space="preserve" text-anchor="start" x="1020.88" y="-431.75" font-family="Tahoma" font-weight="bold" font-size="10.00">Grafana &amp; Prometheus</text>
<text xml:space="preserve" text-anchor="start" x="1038.88" y="-411" font-family="Tahoma" font-size="10.00">[Software System]</text>
<text xml:space="preserve" text-anchor="start" x="1006.62" y="-391.25" font-family="Tahoma" font-size="10.00">Reporting &amp; visualisation services</text>
</g>
<!-- cctv -->
<g id="node13" class="node">
<title>cctv</title>
<image xlink:href="./assets/ico_cctv.jpg" width="50px" height="37px" preserveAspectRatio="xMinYMin meet" x="1231" y="-452.375"/>
<text xml:space="preserve" text-anchor="start" x="1242.88" y="-399.88" font-family="Tahoma" font-weight="bold" font-size="10.00">CCTV</text>
<text xml:space="preserve" text-anchor="start" x="1213.62" y="-379.12" font-family="Tahoma" font-size="10.00">[Hardware System]</text>
</g>
<!-- cctv&#45;&gt;comp_1 -->
<g id="edge16" class="edge">
<title>cctv&#45;&gt;comp_1</title>
<path fill="none" stroke="darkgreen" d="M1202.36,-359.75C1195.45,-354.14 1188.25,-348.83 1181,-344.25 1162.87,-332.81 1151.12,-341.69 1136.25,-326.25 1119.79,-309.17 1111.92,-282.8 1108.2,-263.59"/>
<polygon fill="darkgreen" stroke="darkgreen" points="1199.87,-362.23 1209.77,-366 1204.38,-356.88 1199.87,-362.23"/>
<text xml:space="preserve" text-anchor="middle" x="1166.62" y="-316.75" font-family="Tahoma" font-size="10.00" fill="darkgreen">rtsp:// stream</text>
</g>
<!-- cctv&#45;&gt;comp_2 -->
<g id="edge17" class="edge">
<title>cctv&#45;&gt;comp_2</title>
<path fill="none" stroke="darkgreen" d="M1205.67,-359.77C1197.92,-353.76 1189.61,-348.34 1181,-344.25 1130.8,-320.39 1109.47,-345.28 1057.25,-326.25 1016.48,-311.39 974.85,-283.69 947.65,-263.56"/>
<polygon fill="darkgreen" stroke="darkgreen" points="1203.39,-362.43 1213.33,-366.09 1207.84,-357.03 1203.39,-362.43"/>
<text xml:space="preserve" text-anchor="middle" x="1087.62" y="-316.75" font-family="Tahoma" font-size="10.00" fill="darkgreen">rtsp:// stream</text>
</g>
<!-- db_1&#45;&gt;comp_1 -->
<g id="edge18" class="edge">
<title>db_1&#45;&gt;comp_1</title>
<path fill="none" stroke="darkgreen" d="M365.28,-348C368.51,-346.63 371.75,-345.38 375,-344.25 504.51,-299.27 857.75,-331.61 990,-295.5 1016.15,-288.36 1043.49,-275.28 1064.95,-263.54"/>
<polygon fill="darkgreen" stroke="darkgreen" points="364.05,-344.71 356.42,-352.06 366.97,-351.07 364.05,-344.71"/>
<text xml:space="preserve" text-anchor="middle" x="840.1" y="-316.75" font-family="Tahoma" font-size="10.00" fill="darkgreen">rtsp:// stream</text>
</g>
<!-- db_1&#45;&gt;comp_2 -->
<g id="edge19" class="edge">
<title>db_1&#45;&gt;comp_2</title>
<path fill="none" stroke="darkgreen" d="M201.22,-333.25C201.02,-326.27 203.36,-319.56 209.25,-313.5 232.62,-289.42 780.59,-304.2 813,-295.5 837.57,-288.9 862.74,-275.53 882.16,-263.49"/>
<polygon fill="darkgreen" stroke="darkgreen" points="197.76,-333.8 203.18,-342.9 204.62,-332.41 197.76,-333.8"/>
<text xml:space="preserve" text-anchor="middle" x="239.62" y="-316.75" font-family="Tahoma" font-size="10.00" fill="darkgreen">rtsp:// stream</text>
</g>
<!-- gate_1 -->
<g id="node15" class="node">
<title>gate_1</title>
<polygon fill="white" stroke="none" points="32.25,-185.25 32.25,-291.5 169.75,-291.5 169.75,-185.25 32.25,-185.25"/>
<image xlink:href="./assets/ico_sgo.jpg" width="44px" height="37px" preserveAspectRatio="xMinYMin meet" x="79" y="-286.5"/>
<text xml:space="preserve" text-anchor="start" x="56.75" y="-234" font-family="Tahoma" font-weight="bold" font-size="10.00">Property car gate</text>
<text xml:space="preserve" text-anchor="start" x="58.62" y="-213.25" font-family="Tahoma" font-size="10.00">[Hardware System]</text>
<text xml:space="preserve" text-anchor="start" x="37.25" y="-193.5" font-family="Tahoma" font-size="10.00">Automatic sliding gate opener</text>
</g>
<!-- db_1&#45;&gt;gate_1 -->
<g id="edge23" class="edge">
<title>db_1&#45;&gt;gate_1</title>
<path fill="none" stroke="black" d="M188.89,-350.96C179.82,-343 170.99,-334.68 163,-326.25 156.59,-319.49 150.3,-312.02 144.33,-304.4"/>
<polygon fill="black" stroke="black" points="147.25,-302.45 138.41,-296.62 141.68,-306.69 147.25,-302.45"/>
</g>
<!-- gate_1s2 -->
<g id="node18" class="node">
<title>gate_1s2</title>
<polygon fill="white" stroke="none" points="221.62,-185.25 221.62,-291.5 340.38,-291.5 340.38,-185.25 221.62,-185.25"/>
<image xlink:href="./assets/ico_wcs.jpg" width="103px" height="37px" preserveAspectRatio="xMinYMin meet" x="229.5" y="-286.5"/>
<text xml:space="preserve" text-anchor="start" x="226.62" y="-234" font-family="Tahoma" font-weight="bold" font-size="10.00">Gate feedback sensor</text>
<text xml:space="preserve" text-anchor="start" x="238.62" y="-213.25" font-family="Tahoma" font-size="10.00">[Hardware System]</text>
<text xml:space="preserve" text-anchor="start" x="228.12" y="-193.5" font-family="Tahoma" font-size="10.00">Closure feedback sensor</text>
</g>
<!-- db_1&#45;&gt;gate_1s2 -->
<g id="edge27" class="edge">
<title>db_1&#45;&gt;gate_1s2</title>
<path fill="none" stroke="black" d="M181.47,-355.57C171.97,-342.76 168.23,-328.49 176,-313.5 178.54,-308.6 194.82,-296.4 213.83,-283.28"/>
<polygon fill="black" stroke="black" points="178.74,-357.76 187.92,-363.05 184.04,-353.19 178.74,-357.76"/>
</g>
<!-- gate_1i -->
<g id="node16" class="node">
<title>gate_1i</title>
<polygon fill="white" stroke="none" points="32.12,-28 32.12,-134.25 153.88,-134.25 153.88,-28 32.12,-28"/>
<image xlink:href="./assets/ico_sgi.jpg" width="57px" height="37px" preserveAspectRatio="xMinYMin meet" x="64.5" y="-129.25"/>
<text xml:space="preserve" text-anchor="start" x="37.12" y="-76.75" font-family="Tahoma" font-weight="bold" font-size="10.00">Gate closure indicator</text>
<text xml:space="preserve" text-anchor="start" x="50.62" y="-56" font-family="Tahoma" font-size="10.00">[Hardware System]</text>
<text xml:space="preserve" text-anchor="start" x="57" y="-36.25" font-family="Tahoma" font-size="10.00">Closure indicator</text>
</g>
<!-- gate_1&#45;&gt;gate_1i -->
<g id="edge26" class="edge">
<title>gate_1&#45;&gt;gate_1i</title>
<path fill="none" stroke="black" d="M98.11,-181.33C97.58,-170.99 97.02,-160.11 96.47,-149.48"/>
<polygon fill="black" stroke="black" points="99.97,-149.41 95.96,-139.6 92.98,-149.77 99.97,-149.41"/>
</g>
<!-- gate_1s1 -->
<g id="node17" class="node">
<title>gate_1s1</title>
<polygon fill="white" stroke="none" points="205.62,-28 205.62,-134.25 300.38,-134.25 300.38,-28 205.62,-28"/>
<image xlink:href="./assets/ico_sgs.jpg" width="65px" height="37px" preserveAspectRatio="xMinYMin meet" x="220.5" y="-129.25"/>
<text xml:space="preserve" text-anchor="start" x="211" y="-76.75" font-family="Tahoma" font-weight="bold" font-size="10.00">Photocell sensor</text>
<text xml:space="preserve" text-anchor="start" x="210.62" y="-56" font-family="Tahoma" font-size="10.00">[Hardware System]</text>
<text xml:space="preserve" text-anchor="start" x="212.88" y="-36.25" font-family="Tahoma" font-size="10.00">Obstruction sensor</text>
</g>
<!-- gate_1&#45;&gt;gate_1s1 -->
<g id="edge25" class="edge">
<title>gate_1&#45;&gt;gate_1s1</title>
<path fill="none" stroke="black" d="M163.72,-173.32C175.16,-161.63 187.02,-149.52 198.21,-138.09"/>
<polygon fill="black" stroke="black" points="161.43,-170.65 156.93,-180.24 166.43,-175.55 161.43,-170.65"/>
</g>
<!-- loop -->
<g id="node19" class="node">
<title>loop</title>
<polygon fill="white" stroke="none" points="147.12,-558.5 147.12,-677.5 346.88,-677.5 346.88,-558.5 147.12,-558.5"/>
<image xlink:href="./assets/ico_vdl.jpg" width="111px" height="37px" preserveAspectRatio="xMinYMin meet" x="191.5" y="-672.5"/>
<text xml:space="preserve" text-anchor="start" x="172.75" y="-620" font-family="Tahoma" font-weight="bold" font-size="10.00">Vehicle detection loop sensor</text>
<text xml:space="preserve" text-anchor="start" x="204.62" y="-599.25" font-family="Tahoma" font-size="10.00">[Hardware System]</text>
<text xml:space="preserve" text-anchor="start" x="152.12" y="-579.5" font-family="Tahoma" font-size="10.00">Internal automatic gate opening loop sensor</text>
<text xml:space="preserve" text-anchor="start" x="179.88" y="-566.75" font-family="Tahoma" font-size="10.00">internally on the gate approach</text>
</g>
<!-- loop&#45;&gt;db_1 -->
<g id="edge22" class="edge">
<title>loop&#45;&gt;db_1</title>
<path fill="none" stroke="black" d="M254.74,-554.51C257.05,-535.83 259.62,-515.08 262.06,-495.42"/>
<polygon fill="black" stroke="black" points="265.53,-495.85 263.29,-485.5 258.58,-494.99 265.53,-495.85"/>
</g>
<!-- rgo -->
<g id="node20" class="node">
<title>rgo</title>
<polygon fill="white" stroke="none" points="31.62,-370.88 31.62,-457.38 144.38,-457.38 144.38,-370.88 31.62,-370.88"/>
<image xlink:href="./assets/ico_gro.jpg" width="51px" height="37px" preserveAspectRatio="xMinYMin meet" x="62.5" y="-452.375"/>
<text xml:space="preserve" text-anchor="start" x="36.62" y="-399.88" font-family="Tahoma" font-weight="bold" font-size="10.00">Gate remote control</text>
<text xml:space="preserve" text-anchor="start" x="45.62" y="-379.12" font-family="Tahoma" font-size="10.00">[Hardware System]</text>
</g>
<!-- rgo&#45;&gt;gate_1 -->
<g id="edge24" class="edge">
<title>rgo&#45;&gt;gate_1</title>
<path fill="none" stroke="black" d="M91.45,-367.02C92.83,-348.53 94.46,-326.85 95.97,-306.66"/>
<polygon fill="black" stroke="black" points="99.45,-307.05 96.7,-296.82 92.47,-306.53 99.45,-307.05"/>
</g>
<!-- db_2&#45;&gt;comp_1 -->
<g id="edge20" class="edge">
<title>db_2&#45;&gt;comp_1</title>
<path fill="none" stroke="darkgreen" d="M1339.11,-340.51C1326.31,-328.15 1322.32,-322.46 1307,-313.5 1260.41,-286.24 1202.05,-266.14 1160.06,-253.8"/>
<polygon fill="darkgreen" stroke="darkgreen" points="1336.46,-342.82 1346.16,-347.09 1341.24,-337.71 1336.46,-342.82"/>
<text xml:space="preserve" text-anchor="middle" x="1354.59" y="-316.75" font-family="Tahoma" font-size="10.00" fill="darkgreen">rtsp:// stream</text>
</g>
<!-- db_2&#45;&gt;comp_2 -->
<g id="edge21" class="edge">
<title>db_2&#45;&gt;comp_2</title>
<path fill="none" stroke="darkgreen" d="M1337.32,-341.91C1297.64,-325.04 1279.84,-337.48 1237.25,-326.25 1221.14,-322 1218.24,-317.24 1202,-313.5 1127.96,-296.45 1105.02,-316.48 1032,-295.5 1006.16,-288.08 979.06,-275.13 957.66,-263.54"/>
<polygon fill="darkgreen" stroke="darkgreen" points="1335.69,-345.01 1346.23,-346.07 1338.65,-338.67 1335.69,-345.01"/>
<text xml:space="preserve" text-anchor="middle" x="1267.62" y="-316.75" font-family="Tahoma" font-size="10.00" fill="darkgreen">rtsp:// stream</text>
</g>
<!-- gate_2 -->
<g id="node22" class="node">
<title>gate_2</title>
<polygon fill="white" stroke="none" points="1556.88,-185.25 1556.88,-291.5 1653.12,-291.5 1653.12,-185.25 1556.88,-185.25"/>
<image xlink:href="./assets/ico_ell.jpg" width="63px" height="37px" preserveAspectRatio="xMinYMin meet" x="1573.5" y="-286.5"/>
<text xml:space="preserve" text-anchor="start" x="1575" y="-234" font-family="Tahoma" font-weight="bold" font-size="10.00">Yard wicket</text>
<text xml:space="preserve" text-anchor="start" x="1562.62" y="-213.25" font-family="Tahoma" font-size="10.00">[Hardware System]</text>
<text xml:space="preserve" text-anchor="start" x="1561.88" y="-193.5" font-family="Tahoma" font-size="10.00">Electric door opener</text>
</g>
<!-- db_2&#45;&gt;gate_2 -->
<g id="edge28" class="edge">
<title>db_2&#45;&gt;gate_2</title>
<path fill="none" stroke="black" d="M1482.52,-351.38C1501.39,-334.12 1521.84,-315.42 1540.53,-298.33"/>
<polygon fill="black" stroke="black" points="1542.85,-300.96 1547.86,-291.62 1538.12,-295.79 1542.85,-300.96"/>
</g>
<!-- gate_2s -->
<g id="node23" class="node">
<title>gate_2s</title>
<polygon fill="white" stroke="none" points="1335.12,-185.25 1335.12,-291.5 1504.88,-291.5 1504.88,-185.25 1335.12,-185.25"/>
<image xlink:href="./assets/ico_wcs.jpg" width="103px" height="37px" preserveAspectRatio="xMinYMin meet" x="1368.5" y="-286.5"/>
<text xml:space="preserve" text-anchor="start" x="1340.12" y="-234" font-family="Tahoma" font-weight="bold" font-size="10.00">Wicket closure feedback sensor</text>
<text xml:space="preserve" text-anchor="start" x="1377.62" y="-213.25" font-family="Tahoma" font-size="10.00">[Hardware System]</text>
<text xml:space="preserve" text-anchor="start" x="1367.12" y="-193.5" font-family="Tahoma" font-size="10.00">Closure feedback sensor</text>
</g>
<!-- db_2&#45;&gt;gate_2s -->
<g id="edge29" class="edge">
<title>db_2&#45;&gt;gate_2s</title>
<path fill="none" stroke="black" d="M1417.3,-333.26C1417.67,-320.42 1418.04,-307.38 1418.39,-295.26"/>
<polygon fill="black" stroke="black" points="1413.81,-332.84 1417.02,-342.94 1420.81,-333.05 1413.81,-332.84"/>
</g>
</g>
</svg>
